<svg width="36" height="13" xmlns="http://www.w3.org/2000/svg"><g clipPath="url(#clip0)">
        <path
          d="M14.43 0a25.93 25.93 0 00-3.546 1c1.69 6.864 6.728 9.803 7.124 10.03V9.258C14.598 5.833 14.43.924 14.43 0z"
          fill="#005DAA"
        />
        <path
          d="M10 1.333a22.261 22.261 0 00-3.835 1.985c2.618 5.53 11.295 9.394 11.843 9.636V11.03C12.787 8.818 10.366 2.38 10 1.333z"
          fill="#414042"
        />
        <path
          d="M5.389 3.849C3.653 5.09 2.207 6.56 1.157 8.167c6.073 4.651 16.257 4.788 16.835 4.788v-.637c-7.23-1.651-11.523-6.97-12.603-8.47z"
          fill="#414042"
        />
        <path
          d="M.624 9.076c-.228.44-.441.879-.624 1.318.868.364 7.444 2.94 18.008 2.576-.624-.03-11.965-.425-17.384-3.894z"
          fill="#939598"
        />
        <path
          d="M21.57 0c1.232.258 2.42.59 3.546 1-1.674 6.879-6.713 9.803-7.108 10.03V9.258C21.402 5.833 21.57.924 21.57 0z"
          fill="#005DAA"
        />
        <path
          d="M26 1.333a22.26 22.26 0 013.835 1.985c-2.618 5.53-11.295 9.394-11.843 9.636V11.03C23.214 8.818 25.634 2.38 26 1.333z"
          fill="#414042"
        />
        <path
          d="M30.611 3.849c1.736 1.242 3.182 2.712 4.232 4.333-6.074 4.651-16.257 4.788-16.835 4.788v-.637C25.238 10.667 29.53 5.35 30.61 3.85z"
          fill="#414042"
        />
        <path
          d="M35.376 9.076c.228.44.441.879.624 1.318-.868.364-7.444 2.94-18.008 2.576.624-.03 11.965-.425 17.384-3.894z"
          fill="#939598"
        />
      </g>
      <defs>
        <clipPath id="clip0">
          <path fill="#fff" d="M0 0h36v13H0z" />
        </clipPath>
      </defs>
   </svg>